G04 DesignSpark PCB Gerber Version 11.0 Build 5877*
G04 #@! TF.Part,Single*
G04 #@! TF.FileFunction,Soldermask,Top*
G04 #@! TF.FilePolarity,Negative*
%FSLAX35Y35*%
%MOIN*%
G04 #@! TA.AperFunction,ComponentPad*
%ADD105O,0.08600X0.06600*%
G04 #@! TA.AperFunction,SMDPad,CuDef*
%ADD106R,0.02400X0.01900*%
%ADD101R,0.02600X0.02200*%
%ADD104R,0.08600X0.03100*%
%ADD100R,0.04500X0.05600*%
%ADD82R,0.05800X0.06400*%
G04 #@! TD.AperFunction*
%ADD23C,0.00500*%
%ADD10C,0.01200*%
G04 #@! TA.AperFunction,ViaPad*
%ADD19C,0.02600*%
G04 #@! TA.AperFunction,ComponentPad*
%ADD102C,0.05600*%
%ADD71C,0.06600*%
G04 #@! TA.AperFunction,SMDPad,CuDef*
%ADD21R,0.06400X0.05800*%
G04 #@! TA.AperFunction,ComponentPad*
%ADD99C,0.15100*%
%ADD103C,0.20600*%
G04 #@! TD.AperFunction*
X0Y0D02*
D02*
D10*
X600Y600D02*
X178600D01*
Y430100D01*
X600D01*
Y600D01*
D02*
D19*
X18250Y109850D03*
X19100Y184978D03*
X25782Y170850D03*
X26600Y30350D03*
Y80850D03*
Y299100D03*
X28400Y260850D03*
X32107Y156100D03*
X32529Y288850D03*
X33000Y270600D03*
X33350Y94600D03*
X33850Y45100D03*
X35200Y133850D03*
X35600Y367100D03*
X36100Y110100D03*
X36600Y299100D03*
Y346100D03*
X38100Y185100D03*
X39350Y105350D03*
X40100Y196350D03*
X41850Y10350D03*
Y60850D03*
X45000Y134100D03*
X45100Y66100D03*
X46350Y150850D03*
X46850Y170850D03*
Y276822D03*
X47600Y306100D03*
X48350Y110100D03*
X48600Y11100D03*
X49600Y60850D03*
X53850Y211100D03*
X54000Y110350D03*
Y134100D03*
X54100Y245100D03*
X55100Y94600D03*
X55850Y43374D03*
X58246Y158350D03*
X58350Y234100D03*
X58850Y215350D03*
X59600Y321850D03*
X60600Y369100D03*
X61100Y170350D03*
X63433Y22633D03*
X64100Y33100D03*
Y80850D03*
X65100Y170850D03*
X69600Y311850D03*
X69709Y156350D03*
X70600Y164850D03*
X73246Y17850D03*
X74850Y66350D03*
X76454Y29600D03*
X76704Y79600D03*
X77600Y90350D03*
X78850Y67600D03*
X79506Y24600D03*
X80870Y75512D03*
X81350Y20600D03*
X84591Y40522D03*
X84850Y59100D03*
X85100Y8100D03*
X89105Y87375D03*
X92600Y44367D03*
X96347Y87375D03*
X97860Y100273D03*
X98600Y373100D03*
X99350Y54100D03*
X99993Y13100D03*
X101779Y23110D03*
X105600Y310850D03*
X107186Y54100D03*
X107350Y33100D03*
X107583Y28090D03*
X109600Y318100D03*
X113600Y301100D03*
X114600Y43100D03*
X122600Y69100D03*
X123110Y18100D03*
X124250Y88100D03*
X125600Y324600D03*
X129850Y135600D03*
X130278Y50850D03*
X132950Y88100D03*
X134916Y46100D03*
X135735Y25839D03*
X143600Y61600D03*
X148100Y76100D03*
X153519Y31100D03*
X155250Y71850D03*
X156520Y41100D03*
X163288Y17788D03*
X164100Y71850D03*
X172600Y72100D03*
D02*
D71*
X41600Y389100D03*
Y409100D03*
X46100Y399100D03*
X50600Y389100D03*
Y409100D03*
X55100Y399100D03*
X59600Y389100D03*
Y409100D03*
X64100Y399100D03*
X68600Y389100D03*
Y409100D03*
X73100Y399100D03*
X77600Y389100D03*
Y409100D03*
X82100Y399100D03*
D02*
D21*
X26600Y314750D03*
Y323450D03*
X36600Y314750D03*
Y323450D03*
X46850Y254500D03*
Y263200D03*
X47600Y314750D03*
Y323450D03*
X58350Y258750D03*
Y267450D03*
X59600Y333750D03*
Y342450D03*
X69600Y333750D03*
Y342450D03*
X79600Y333750D03*
Y342450D03*
X89600Y333750D03*
Y342450D03*
X99600Y333750D03*
Y342450D03*
X110600Y333750D03*
Y342450D03*
D02*
D23*
X24528Y253254D02*
Y257004D01*
X22341D01*
X21716Y256691D01*
X21403Y256066D01*
X21716Y255441D01*
X22341Y255129D01*
X24528D01*
X19216Y253566D02*
X18591Y253254D01*
X17966D01*
X17341Y253566D01*
X17028Y254191D01*
X17341Y254816D01*
X17966Y255129D01*
X18591D01*
X17966D02*
X17341Y255441D01*
X17028Y256066D01*
X17341Y256691D01*
X17966Y257004D01*
X18591D01*
X19216Y256691D01*
X125600Y380037D02*
Y383787D01*
X127787D01*
X128413Y383475D01*
X128725Y382850D01*
X128413Y382225D01*
X127787Y381913D01*
X125600D01*
X133100Y380037D02*
X130600D01*
X132787Y382225D01*
X133100Y382850D01*
X132787Y383475D01*
X132163Y383787D01*
X131225D01*
X130600Y383475D01*
D02*
D82*
X18109Y116916D03*
X24250Y185100D03*
X26500Y127100D03*
X26809Y116916D03*
X27250Y361100D03*
X32950Y185100D03*
X35200Y127100D03*
X35950Y361100D03*
X36250Y117040D03*
X37852Y224636D03*
X38250Y205100D03*
Y215100D03*
Y234100D03*
Y245100D03*
X40000Y43350D03*
X40250Y94600D03*
X44950Y117040D03*
X45020Y126589D03*
X46250Y361100D03*
X46552Y224636D03*
X46950Y205100D03*
Y215100D03*
Y234100D03*
Y245100D03*
X48700Y43350D03*
X48950Y94600D03*
X53720Y126589D03*
X54000Y116850D03*
X54950Y361100D03*
X62700Y116850D03*
X65250Y361100D03*
X73950D03*
X84250D03*
X92950D03*
X104250D03*
X112950D03*
X124250Y79100D03*
X132950D03*
X155250Y64350D03*
X163950D03*
D02*
D99*
X11600Y399100D03*
X110000D03*
D02*
D100*
X26950Y373100D03*
X32250D03*
X45950D03*
X51250D03*
X67950D03*
X73250D03*
X84950D03*
X90250D03*
X106950D03*
X112250D03*
D02*
D101*
X20600Y268040D03*
Y270600D03*
Y273160D03*
X28600Y268040D03*
Y270600D03*
Y273160D03*
D02*
D102*
X10528Y205066D03*
Y215066D03*
Y225066D03*
Y235066D03*
Y245066D03*
X20528Y205066D03*
Y215066D03*
Y225066D03*
Y235066D03*
Y245066D03*
D02*
D103*
X15600Y87600D03*
Y344100D03*
D02*
D104*
X17850Y145850D03*
Y150850D03*
Y155850D03*
Y160850D03*
Y165850D03*
Y170850D03*
Y175850D03*
X34100Y55850D03*
Y60850D03*
Y65850D03*
Y70850D03*
Y75850D03*
Y80850D03*
Y85850D03*
X34600Y5350D03*
Y10350D03*
Y15350D03*
Y20350D03*
Y25350D03*
Y30350D03*
Y35350D03*
X39850Y145850D03*
Y150850D03*
Y155850D03*
Y160850D03*
Y165850D03*
Y170850D03*
Y175850D03*
X56100Y55850D03*
Y60850D03*
Y65850D03*
Y70850D03*
Y75850D03*
Y80850D03*
Y85850D03*
X56600Y5350D03*
Y10350D03*
Y15350D03*
Y20350D03*
Y25350D03*
Y30350D03*
Y35350D03*
X92600Y8100D03*
Y13100D03*
Y18100D03*
Y23100D03*
Y28100D03*
Y33100D03*
Y38100D03*
Y49100D03*
Y54100D03*
Y59100D03*
Y64100D03*
Y69100D03*
Y74100D03*
Y79100D03*
X114600Y8100D03*
Y13100D03*
Y18100D03*
Y23100D03*
Y28100D03*
Y33100D03*
Y38100D03*
Y49100D03*
Y54100D03*
Y59100D03*
Y64100D03*
Y69100D03*
Y74100D03*
Y79100D03*
X143600Y26100D03*
Y31100D03*
Y36100D03*
Y41100D03*
Y46100D03*
Y51100D03*
Y56100D03*
X165600Y26100D03*
Y31100D03*
Y36100D03*
Y41100D03*
Y46100D03*
Y51100D03*
Y56100D03*
D02*
D105*
X84100Y95600D03*
Y105600D03*
Y115600D03*
Y125600D03*
Y135600D03*
Y145600D03*
Y155600D03*
Y165600D03*
Y175600D03*
Y185600D03*
Y195600D03*
Y205600D03*
Y215600D03*
Y225600D03*
Y235600D03*
Y245600D03*
Y255600D03*
Y265600D03*
Y275600D03*
Y285600D03*
X154100Y95600D03*
Y105600D03*
Y115600D03*
Y125600D03*
Y135600D03*
Y145600D03*
Y155600D03*
Y165600D03*
Y175600D03*
Y185600D03*
Y195600D03*
Y205600D03*
Y215600D03*
Y225600D03*
Y235600D03*
Y245600D03*
Y255600D03*
Y265600D03*
Y275600D03*
Y285600D03*
D02*
D106*
X54746Y172100D03*
Y174100D03*
Y176100D03*
Y178100D03*
X57954Y172100D03*
Y174100D03*
Y176100D03*
Y178100D03*
X58246Y161350D03*
Y163350D03*
Y165350D03*
Y167350D03*
X61454Y161350D03*
Y163350D03*
Y165350D03*
Y167350D03*
X69996Y82100D03*
Y84100D03*
Y86100D03*
Y88100D03*
X70246Y31350D03*
Y33350D03*
Y35350D03*
Y37350D03*
X73204Y82100D03*
Y84100D03*
Y86100D03*
Y88100D03*
X73246Y20600D03*
Y22600D03*
Y24600D03*
Y26600D03*
X73454Y31350D03*
Y33350D03*
Y35350D03*
Y37350D03*
X73496Y69850D03*
Y71850D03*
Y73850D03*
Y75850D03*
X76454Y20600D03*
Y22600D03*
Y24600D03*
Y26600D03*
X76704Y69850D03*
Y71850D03*
Y73850D03*
Y75850D03*
X0Y0D02*
M02*
