G04 DesignSpark PCB Gerber Version 11.0 Build 5877*
G04 #@! TF.Part,Single*
G04 #@! TF.FilePolarity,Positive*
%FSLAX35Y35*%
%MOIN*%
G04 #@! TA.AperFunction,ViaDrill*
%ADD27C,0.01000*%
G04 #@! TA.AperFunction,ComponentDrill*
%ADD130C,0.03200*%
%ADD29C,0.03800*%
%ADD132C,0.04000*%
%ADD131C,0.10000*%
%ADD129C,0.12500*%
G04 #@! TD.AperFunction*
X0Y0D02*
D02*
D27*
X18250Y109850D03*
X19100Y184978D03*
X25782Y170850D03*
X26600Y30350D03*
Y80850D03*
Y299100D03*
X28400Y260850D03*
X32107Y156100D03*
X32529Y288850D03*
X33000Y270600D03*
X33350Y94600D03*
X33850Y45100D03*
X35200Y133850D03*
X35600Y367100D03*
X36100Y110100D03*
X36600Y299100D03*
Y346100D03*
X38100Y185100D03*
X39350Y105350D03*
X40100Y196350D03*
X41850Y10350D03*
Y60850D03*
X45000Y134100D03*
X45100Y66100D03*
X46350Y150850D03*
X46850Y170850D03*
Y276822D03*
X47600Y306100D03*
X48350Y110100D03*
X48600Y11100D03*
X49600Y60850D03*
X53850Y211100D03*
X54000Y110350D03*
Y134100D03*
X54100Y245100D03*
X55100Y94600D03*
X55850Y43374D03*
X58246Y158350D03*
X58350Y234100D03*
X58850Y215350D03*
X59600Y321850D03*
X60600Y369100D03*
X61100Y170350D03*
X63433Y22633D03*
X64100Y33100D03*
Y80850D03*
X65100Y170850D03*
X69600Y311850D03*
X69709Y156350D03*
X70600Y164850D03*
X73246Y17850D03*
X74850Y66350D03*
X76454Y29600D03*
X76704Y79600D03*
X77600Y90350D03*
X78850Y67600D03*
X79506Y24600D03*
X80870Y75512D03*
X81350Y20600D03*
X84591Y40522D03*
X84850Y59100D03*
X85100Y8100D03*
X89105Y87375D03*
X92600Y44367D03*
X96347Y87375D03*
X97860Y100273D03*
X98600Y373100D03*
X99350Y54100D03*
X99993Y13100D03*
X101779Y23110D03*
X105600Y310850D03*
X107186Y54100D03*
X107350Y33100D03*
X107583Y28090D03*
X109600Y318100D03*
X113600Y301100D03*
X114600Y43100D03*
X122600Y69100D03*
X123110Y18100D03*
X124250Y88100D03*
X125600Y324600D03*
X129850Y135600D03*
X130278Y50850D03*
X132950Y88100D03*
X134916Y46100D03*
X135735Y25839D03*
X143600Y61600D03*
X148100Y76100D03*
X153519Y31100D03*
X155250Y71850D03*
X156520Y41100D03*
X163288Y17788D03*
X164100Y71850D03*
X172600Y72100D03*
D02*
D29*
X41600Y389100D03*
Y409100D03*
X46100Y399100D03*
X50600Y389100D03*
Y409100D03*
X55100Y399100D03*
X59600Y389100D03*
Y409100D03*
X64100Y399100D03*
X68600Y389100D03*
Y409100D03*
X73100Y399100D03*
X77600Y389100D03*
Y409100D03*
X82100Y399100D03*
D02*
D129*
X11600D03*
X110000D03*
D02*
D130*
X10528Y205066D03*
Y215066D03*
Y225066D03*
Y235066D03*
Y245066D03*
X20528Y205066D03*
Y215066D03*
Y225066D03*
Y235066D03*
Y245066D03*
D02*
D131*
X15600Y87600D03*
Y344100D03*
D02*
D132*
X84100Y95600D03*
Y105600D03*
Y115600D03*
Y125600D03*
Y135600D03*
Y145600D03*
Y155600D03*
Y165600D03*
Y175600D03*
Y185600D03*
Y195600D03*
Y205600D03*
Y215600D03*
Y225600D03*
Y235600D03*
Y245600D03*
Y255600D03*
Y265600D03*
Y275600D03*
Y285600D03*
X154100Y95600D03*
Y105600D03*
Y115600D03*
Y125600D03*
Y135600D03*
Y145600D03*
Y155600D03*
Y165600D03*
Y175600D03*
Y185600D03*
Y195600D03*
Y205600D03*
Y215600D03*
Y225600D03*
Y235600D03*
Y245600D03*
Y255600D03*
Y265600D03*
Y275600D03*
Y285600D03*
X0Y0D02*
M02*
