G05
M48
;#@! TF.GenerationSoftware,DesignSpark,DesignSpark PCB,11.0.5875
;#@! TF.CreationDate,2025-12-06T00:52:02+05:00*
;#@! TF.FileFunction,Plated,1,4,PTH
;FILE_FORMAT=3:5
;TYPE=PLATED
INCH,TZ
FMAT,2
T1C000.01000
T2C000.03200
T3C000.03800
T4C000.04000
T5C000.10000
T6C000.12500
%
T001
X0.18250Y1.09850
X0.19100Y1.84978
X0.25782Y1.70850
X0.26600Y0.30350
X0.26600Y0.80850
X0.26600Y2.99100
X0.28400Y2.60850
X0.32107Y1.56100
X0.32529Y2.88850
X0.33000Y2.70600
X0.33350Y0.94600
X0.33850Y0.45100
X0.35200Y1.33850
X0.35600Y3.67100
X0.36100Y1.10100
X0.36600Y2.99100
X0.36600Y3.46100
X0.38100Y1.85100
X0.39350Y1.05350
X0.40100Y1.96350
X0.41850Y0.10350
X0.41850Y0.60850
X0.45000Y1.34100
X0.45100Y0.66100
X0.46350Y1.50850
X0.46850Y1.70850
X0.46850Y2.76822
X0.47600Y3.06100
X0.48350Y1.10100
X0.48600Y0.11100
X0.49600Y0.60850
X0.53850Y2.11100
X0.54000Y1.10350
X0.54000Y1.34100
X0.54100Y2.45100
X0.55100Y0.94600
X0.55850Y0.43374
X0.58246Y1.58350
X0.58350Y2.34100
X0.58850Y2.15350
X0.59600Y3.21850
X0.60600Y3.69100
X0.61100Y1.70350
X0.63433Y0.22633
X0.64100Y0.33100
X0.64100Y0.80850
X0.65100Y1.70850
X0.69600Y3.11850
X0.69709Y1.56350
X0.70600Y1.64850
X0.73246Y0.17850
X0.74850Y0.66350
X0.76454Y0.29600
X0.76704Y0.79600
X0.77600Y0.90350
X0.78850Y0.67600
X0.79506Y0.24600
X0.80870Y0.75512
X0.81350Y0.20600
X0.84591Y0.40522
X0.84850Y0.59100
X0.85100Y0.08100
X0.89105Y0.87375
X0.92600Y0.44367
X0.96347Y0.87375
X0.97860Y1.00273
X0.98600Y3.73100
X0.99350Y0.54100
X0.99993Y0.13100
X1.01779Y0.23110
X1.05600Y3.10850
X1.07186Y0.54100
X1.07350Y0.33100
X1.07583Y0.28090
X1.09600Y3.18100
X1.13600Y3.01100
X1.14600Y0.43100
X1.22600Y0.69100
X1.23110Y0.18100
X1.24250Y0.88100
X1.25600Y3.24600
X1.29850Y1.35600
X1.30278Y0.50850
X1.32950Y0.88100
X1.34916Y0.46100
X1.35735Y0.25839
X1.43600Y0.61600
X1.48100Y0.76100
X1.53519Y0.31100
X1.55250Y0.71850
X1.56520Y0.41100
X1.63288Y0.17788
X1.64100Y0.71850
X1.72600Y0.72100
T002
X0.10528Y2.05066
X0.10528Y2.15066
X0.10528Y2.25066
X0.10528Y2.35066
X0.10528Y2.45066
X0.20528Y2.05066
X0.20528Y2.15066
X0.20528Y2.25066
X0.20528Y2.35066
X0.20528Y2.45066
T003
X0.41600Y3.89100
X0.41600Y4.09100
X0.46100Y3.99100
X0.50600Y3.89100
X0.50600Y4.09100
X0.55100Y3.99100
X0.59600Y3.89100
X0.59600Y4.09100
X0.64100Y3.99100
X0.68600Y3.89100
X0.68600Y4.09100
X0.73100Y3.99100
X0.77600Y3.89100
X0.77600Y4.09100
X0.82100Y3.99100
T004
X0.84100Y0.95600
X0.84100Y1.05600
X0.84100Y1.15600
X0.84100Y1.25600
X0.84100Y1.35600
X0.84100Y1.45600
X0.84100Y1.55600
X0.84100Y1.65600
X0.84100Y1.75600
X0.84100Y1.85600
X0.84100Y1.95600
X0.84100Y2.05600
X0.84100Y2.15600
X0.84100Y2.25600
X0.84100Y2.35600
X0.84100Y2.45600
X0.84100Y2.55600
X0.84100Y2.65600
X0.84100Y2.75600
X0.84100Y2.85600
X1.54100Y0.95600
X1.54100Y1.05600
X1.54100Y1.15600
X1.54100Y1.25600
X1.54100Y1.35600
X1.54100Y1.45600
X1.54100Y1.55600
X1.54100Y1.65600
X1.54100Y1.75600
X1.54100Y1.85600
X1.54100Y1.95600
X1.54100Y2.05600
X1.54100Y2.15600
X1.54100Y2.25600
X1.54100Y2.35600
X1.54100Y2.45600
X1.54100Y2.55600
X1.54100Y2.65600
X1.54100Y2.75600
X1.54100Y2.85600
T005
X0.15600Y0.87600
X0.15600Y3.44100
T006
X0.11600Y3.99100
X1.10000Y3.99100
M30
