G04 DesignSpark PCB Gerber Version 11.0 Build 5877*
G04 #@! TF.Part,Single*
G04 #@! TF.FileFunction,Soldermask,Bot*
G04 #@! TF.FilePolarity,Negative*
%FSLAX35Y35*%
%MOIN*%
G04 #@! TA.AperFunction,ComponentPad*
%ADD128O,0.08004X0.06004*%
G04 #@! TD.AperFunction*
%ADD10C,0.01200*%
G04 #@! TA.AperFunction,ComponentPad*
%ADD126C,0.05004*%
%ADD124C,0.06004*%
%ADD125C,0.14504*%
%ADD127C,0.20004*%
G04 #@! TD.AperFunction*
X0Y0D02*
D02*
D10*
X600Y600D02*
X178600D01*
Y430100D01*
X600D01*
Y600D01*
D02*
D124*
X41600Y389100D03*
Y409100D03*
X46100Y399100D03*
X50600Y389100D03*
Y409100D03*
X55100Y399100D03*
X59600Y389100D03*
Y409100D03*
X64100Y399100D03*
X68600Y389100D03*
Y409100D03*
X73100Y399100D03*
X77600Y389100D03*
Y409100D03*
X82100Y399100D03*
D02*
D125*
X11600D03*
X110000D03*
D02*
D126*
X10528Y205066D03*
Y215066D03*
Y225066D03*
Y235066D03*
Y245066D03*
X20528Y205066D03*
Y215066D03*
Y225066D03*
Y235066D03*
Y245066D03*
D02*
D127*
X15600Y87600D03*
Y344100D03*
D02*
D128*
X84100Y95600D03*
Y105600D03*
Y115600D03*
Y125600D03*
Y135600D03*
Y145600D03*
Y155600D03*
Y165600D03*
Y175600D03*
Y185600D03*
Y195600D03*
Y205600D03*
Y215600D03*
Y225600D03*
Y235600D03*
Y245600D03*
Y255600D03*
Y265600D03*
Y275600D03*
Y285600D03*
X154100Y95600D03*
Y105600D03*
Y115600D03*
Y125600D03*
Y135600D03*
Y145600D03*
Y155600D03*
Y165600D03*
Y175600D03*
Y185600D03*
Y195600D03*
Y205600D03*
Y215600D03*
Y225600D03*
Y235600D03*
Y245600D03*
Y255600D03*
Y265600D03*
Y275600D03*
Y285600D03*
X0Y0D02*
M02*
