G04 DesignSpark PCB Gerber Version 11.0 Build 5877*
G04 #@! TF.Part,Single*
G04 #@! TF.FileFunction,Drillmap*
G04 #@! TF.FilePolarity,Positive*
%FSLAX35Y35*%
%MOIN*%
%ADD23C,0.00500*%
%ADD10C,0.01200*%
G04 #@! TA.AperFunction,ViaPad*
%ADD73C,0.10000*%
G04 #@! TD.AperFunction*
X0Y0D02*
D02*
D10*
X600Y600D02*
X178600D01*
Y430100D01*
X600D01*
Y600D01*
D02*
D23*
X20528Y211004D02*
X22091Y214754D01*
X23654Y211004D01*
X21154Y212566D02*
X23028D01*
X20528Y221004D02*
X22091Y224754D01*
X23654Y221004D01*
X21154Y222566D02*
X23028D01*
X20528Y231004D02*
X22091Y234754D01*
X23654Y231004D01*
X21154Y232566D02*
X23028D01*
X20528Y241004D02*
X22091Y244754D01*
X23654Y241004D01*
X21154Y242566D02*
X23028D01*
X20528Y251004D02*
X22091Y254754D01*
X23654Y251004D01*
X21154Y252566D02*
X23028D01*
X21600Y408787D02*
Y405037D01*
X24725D01*
X28725Y94163D02*
X28413Y93850D01*
X27787Y93537D01*
X26850D01*
X26225Y93850D01*
X25913Y94163D01*
X25600Y94787D01*
Y96037D01*
X25913Y96663D01*
X26225Y96975D01*
X26850Y97287D01*
X27787D01*
X28413Y96975D01*
X28725Y96663D01*
Y350663D02*
X28413Y350350D01*
X27787Y350037D01*
X26850D01*
X26225Y350350D01*
X25913Y350663D01*
X25600Y351287D01*
Y352537D01*
X25913Y353163D01*
X26225Y353475D01*
X26850Y353787D01*
X27787D01*
X28413Y353475D01*
X28725Y353163D01*
X28250Y115787D02*
Y119537D01*
Y117663D02*
X31375D01*
Y115787D02*
Y119537D01*
X29100Y190915D02*
Y194665D01*
Y192790D02*
X32225D01*
Y190915D02*
Y194665D01*
X30528Y211004D02*
X32091Y214754D01*
X33654Y211004D01*
X31154Y212566D02*
X33028D01*
X30528Y221004D02*
X32091Y224754D01*
X33654Y221004D01*
X31154Y222566D02*
X33028D01*
X30528Y231004D02*
X32091Y234754D01*
X33654Y231004D01*
X31154Y232566D02*
X33028D01*
X30528Y241004D02*
X32091Y244754D01*
X33654Y241004D01*
X31154Y242566D02*
X33028D01*
X30528Y251004D02*
X32091Y254754D01*
X33654Y251004D01*
X31154Y252566D02*
X33028D01*
X35782Y176787D02*
Y180537D01*
Y178663D02*
X38907D01*
Y176787D02*
Y180537D01*
X36600Y36287D02*
Y40037D01*
Y38163D02*
X39725D01*
Y36287D02*
Y40037D01*
X36600Y86787D02*
Y90537D01*
Y88663D02*
X39725D01*
Y86787D02*
Y90537D01*
X36600Y305037D02*
Y308787D01*
Y306913D02*
X39725D01*
Y305037D02*
Y308787D01*
X38400Y266787D02*
Y270537D01*
Y268663D02*
X41525D01*
Y266787D02*
Y270537D01*
X42107Y162037D02*
Y165787D01*
Y163913D02*
X45232D01*
Y162037D02*
Y165787D01*
X42529Y294787D02*
Y298537D01*
Y296663D02*
X45654D01*
Y294787D02*
Y298537D01*
X43000Y276537D02*
Y280287D01*
Y278413D02*
X46125D01*
Y276537D02*
Y280287D01*
X43350Y100537D02*
Y104287D01*
Y102413D02*
X46475D01*
Y100537D02*
Y104287D01*
X43850Y51037D02*
Y54787D01*
Y52913D02*
X46975D01*
Y51037D02*
Y54787D01*
X45200Y139787D02*
Y143537D01*
Y141663D02*
X48325D01*
Y139787D02*
Y143537D01*
X45600Y373037D02*
Y376787D01*
Y374913D02*
X48725D01*
Y373037D02*
Y376787D01*
X46100Y116037D02*
Y119787D01*
Y117913D02*
X49226D01*
Y116037D02*
Y119787D01*
X46600Y305037D02*
Y308787D01*
Y306913D02*
X49725D01*
Y305037D02*
Y308787D01*
X46600Y352037D02*
Y355787D01*
Y353913D02*
X49725D01*
Y352037D02*
Y355787D01*
X48100Y191037D02*
Y194787D01*
Y192913D02*
X51225D01*
Y191037D02*
Y194787D01*
X49350Y111287D02*
Y115037D01*
Y113163D02*
X52475D01*
Y111287D02*
Y115037D01*
X50100Y202287D02*
Y206037D01*
Y204163D02*
X53225D01*
Y202287D02*
Y206037D01*
X51600Y395037D02*
Y398787D01*
X53475D01*
X54100Y398475D01*
X54413Y398163D01*
X54725Y397537D01*
Y396287D01*
X54413Y395663D01*
X54100Y395350D01*
X53475Y395037D01*
X51600D01*
Y415037D02*
Y418787D01*
X53475D01*
X54100Y418475D01*
X54413Y418163D01*
X54725Y417537D01*
Y416287D01*
X54413Y415663D01*
X54100Y415350D01*
X53475Y415037D01*
X51600D01*
X51850Y16287D02*
Y20037D01*
Y18163D02*
X54975D01*
Y16287D02*
Y20037D01*
X51850Y66787D02*
Y70537D01*
Y68663D02*
X54975D01*
Y66787D02*
Y70537D01*
X55000Y140037D02*
Y143787D01*
Y141913D02*
X58125D01*
Y140037D02*
Y143787D01*
X55100Y72037D02*
Y75787D01*
Y73913D02*
X58225D01*
Y72037D02*
Y75787D01*
X56100Y405037D02*
Y408787D01*
X57975D01*
X58600Y408475D01*
X58913Y408163D01*
X59225Y407537D01*
Y406287D01*
X58913Y405663D01*
X58600Y405350D01*
X57975Y405037D01*
X56100D01*
X56350Y156787D02*
Y160537D01*
Y158663D02*
X59475D01*
Y156787D02*
Y160537D01*
X56850Y176787D02*
Y180537D01*
Y178663D02*
X59975D01*
Y176787D02*
Y180537D01*
X56850Y282759D02*
Y286509D01*
Y284634D02*
X59975D01*
Y282759D02*
Y286509D01*
X57600Y312037D02*
Y315787D01*
Y313913D02*
X60725D01*
Y312037D02*
Y315787D01*
X58350Y116037D02*
Y119787D01*
Y117913D02*
X61475D01*
Y116037D02*
Y119787D01*
X58600Y17037D02*
Y20787D01*
Y18913D02*
X61725D01*
Y17037D02*
Y20787D01*
X59600Y66787D02*
Y70537D01*
Y68663D02*
X62725D01*
Y66787D02*
Y70537D01*
X60600Y395037D02*
Y398787D01*
X62475D01*
X63100Y398475D01*
X63413Y398163D01*
X63725Y397537D01*
Y396287D01*
X63413Y395663D01*
X63100Y395350D01*
X62475Y395037D01*
X60600D01*
Y415037D02*
Y418787D01*
X62475D01*
X63100Y418475D01*
X63413Y418163D01*
X63725Y417537D01*
Y416287D01*
X63413Y415663D01*
X63100Y415350D01*
X62475Y415037D01*
X60600D01*
X63850Y217037D02*
Y220787D01*
Y218913D02*
X66975D01*
Y217037D02*
Y220787D01*
X64000Y116287D02*
Y120037D01*
Y118163D02*
X67125D01*
Y116287D02*
Y120037D01*
X64000Y140037D02*
Y143787D01*
Y141913D02*
X67125D01*
Y140037D02*
Y143787D01*
X64100Y251037D02*
Y254787D01*
Y252913D02*
X67225D01*
Y251037D02*
Y254787D01*
X65100Y100537D02*
Y104287D01*
Y102413D02*
X68225D01*
Y100537D02*
Y104287D01*
X65100Y405037D02*
Y408787D01*
X66975D01*
X67600Y408475D01*
X67913Y408163D01*
X68225Y407537D01*
Y406287D01*
X67913Y405663D01*
X67600Y405350D01*
X66975Y405037D01*
X65100D01*
X65850Y49312D02*
Y53062D01*
Y51187D02*
X68975D01*
Y49312D02*
Y53062D01*
X68246Y164287D02*
Y168037D01*
Y166163D02*
X71372D01*
Y164287D02*
Y168037D01*
X68350Y240037D02*
Y243787D01*
Y241913D02*
X71475D01*
Y240037D02*
Y243787D01*
X68850Y221287D02*
Y225037D01*
Y223163D02*
X71975D01*
Y221287D02*
Y225037D01*
X69600Y327787D02*
Y331537D01*
Y329663D02*
X72725D01*
Y327787D02*
Y331537D01*
X69600Y395037D02*
Y398787D01*
X71475D01*
X72100Y398475D01*
X72413Y398163D01*
X72725Y397537D01*
Y396287D01*
X72413Y395663D01*
X72100Y395350D01*
X71475Y395037D01*
X69600D01*
Y415037D02*
Y418787D01*
X71475D01*
X72100Y418475D01*
X72413Y418163D01*
X72725Y417537D01*
Y416287D01*
X72413Y415663D01*
X72100Y415350D01*
X71475Y415037D01*
X69600D01*
X70600Y375037D02*
Y378787D01*
Y376913D02*
X73725D01*
Y375037D02*
Y378787D01*
X71100Y176287D02*
Y180037D01*
Y178163D02*
X74225D01*
Y176287D02*
Y180037D01*
X73433Y28570D02*
Y32320D01*
Y30445D02*
X76559D01*
Y28570D02*
Y32320D01*
X74100Y39037D02*
Y42787D01*
Y40913D02*
X77225D01*
Y39037D02*
Y42787D01*
X74100Y86787D02*
Y90537D01*
Y88663D02*
X77225D01*
Y86787D02*
Y90537D01*
X74100Y405037D02*
Y408787D01*
X75975D01*
X76600Y408475D01*
X76913Y408163D01*
X77225Y407537D01*
Y406287D01*
X76913Y405663D01*
X76600Y405350D01*
X75975Y405037D01*
X74100D01*
X75100Y176787D02*
Y180537D01*
Y178663D02*
X78225D01*
Y176787D02*
Y180537D01*
X78600Y395037D02*
Y398787D01*
X80475D01*
X81100Y398475D01*
X81413Y398163D01*
X81725Y397537D01*
Y396287D01*
X81413Y395663D01*
X81100Y395350D01*
X80475Y395037D01*
X78600D01*
Y415037D02*
Y418787D01*
X80475D01*
X81100Y418475D01*
X81413Y418163D01*
X81725Y417537D01*
Y416287D01*
X81413Y415663D01*
X81100Y415350D01*
X80475Y415037D01*
X78600D01*
X79600Y317787D02*
Y321537D01*
Y319663D02*
X82725D01*
Y317787D02*
Y321537D01*
X79709Y162287D02*
Y166037D01*
Y164163D02*
X82834D01*
Y162287D02*
Y166037D01*
X80600Y170787D02*
Y174537D01*
Y172663D02*
X83725D01*
Y170787D02*
Y174537D01*
X83100Y405037D02*
Y408787D01*
X84975D01*
X85600Y408475D01*
X85913Y408163D01*
X86225Y407537D01*
Y406287D01*
X85913Y405663D01*
X85600Y405350D01*
X84975Y405037D01*
X83100D01*
X83246Y23787D02*
Y27537D01*
Y25663D02*
X86372D01*
Y23787D02*
Y27537D01*
X84850Y72287D02*
Y76037D01*
Y74163D02*
X87975D01*
Y72287D02*
Y76037D01*
X86454Y35537D02*
Y39287D01*
Y37413D02*
X89579D01*
Y35537D02*
Y39287D01*
X86704Y85537D02*
Y89287D01*
Y87413D02*
X89829D01*
Y85537D02*
Y89287D01*
X87600Y96287D02*
Y100037D01*
Y98163D02*
X90725D01*
Y96287D02*
Y100037D01*
X87600Y395037D02*
Y398787D01*
X89475D01*
X90100Y398475D01*
X90413Y398163D01*
X90725Y397537D01*
Y396287D01*
X90413Y395663D01*
X90100Y395350D01*
X89475Y395037D01*
X87600D01*
Y415037D02*
Y418787D01*
X89475D01*
X90100Y418475D01*
X90413Y418163D01*
X90725Y417537D01*
Y416287D01*
X90413Y415663D01*
X90100Y415350D01*
X89475Y415037D01*
X87600D01*
X88850Y73537D02*
Y77287D01*
Y75413D02*
X91975D01*
Y73537D02*
Y77287D01*
X89506Y30537D02*
Y34287D01*
Y32413D02*
X92631D01*
Y30537D02*
Y34287D01*
X90870Y81449D02*
Y85199D01*
Y83324D02*
X93995D01*
Y81449D02*
Y85199D01*
X91350Y26537D02*
Y30287D01*
Y28413D02*
X94475D01*
Y26537D02*
Y30287D01*
X92100Y405037D02*
Y408787D01*
X93975D01*
X94600Y408475D01*
X94913Y408163D01*
X95225Y407537D01*
Y406287D01*
X94913Y405663D01*
X94600Y405350D01*
X93975Y405037D01*
X92100D01*
X94100Y101537D02*
Y105287D01*
X95663Y103413D01*
X97225Y105287D01*
Y101537D01*
X94100Y111537D02*
Y115287D01*
X95663Y113413D01*
X97225Y115287D01*
Y111537D01*
X94100Y121537D02*
Y125287D01*
X95663Y123413D01*
X97225Y125287D01*
Y121537D01*
X94100Y131537D02*
Y135287D01*
X95663Y133413D01*
X97225Y135287D01*
Y131537D01*
X94100Y141537D02*
Y145287D01*
X95663Y143413D01*
X97225Y145287D01*
Y141537D01*
X94100Y151537D02*
Y155287D01*
X95663Y153413D01*
X97225Y155287D01*
Y151537D01*
X94100Y161537D02*
Y165287D01*
X95663Y163413D01*
X97225Y165287D01*
Y161537D01*
X94100Y171537D02*
Y175287D01*
X95663Y173413D01*
X97225Y175287D01*
Y171537D01*
X94100Y181537D02*
Y185287D01*
X95663Y183413D01*
X97225Y185287D01*
Y181537D01*
X94100Y191537D02*
Y195287D01*
X95663Y193413D01*
X97225Y195287D01*
Y191537D01*
X94100Y201537D02*
Y205287D01*
X95663Y203413D01*
X97225Y205287D01*
Y201537D01*
X94100Y211537D02*
Y215287D01*
X95663Y213413D01*
X97225Y215287D01*
Y211537D01*
X94100Y221537D02*
Y225287D01*
X95663Y223413D01*
X97225Y225287D01*
Y221537D01*
X94100Y231537D02*
Y235287D01*
X95663Y233413D01*
X97225Y235287D01*
Y231537D01*
X94100Y241537D02*
Y245287D01*
X95663Y243413D01*
X97225Y245287D01*
Y241537D01*
X94100Y251537D02*
Y255287D01*
X95663Y253413D01*
X97225Y255287D01*
Y251537D01*
X94100Y261537D02*
Y265287D01*
X95663Y263413D01*
X97225Y265287D01*
Y261537D01*
X94100Y271537D02*
Y275287D01*
X95663Y273413D01*
X97225Y275287D01*
Y271537D01*
X94100Y281537D02*
Y285287D01*
X95663Y283413D01*
X97225Y285287D01*
Y281537D01*
X94100Y291537D02*
Y295287D01*
X95663Y293413D01*
X97225Y295287D01*
Y291537D01*
X94591Y46459D02*
Y50209D01*
Y48335D02*
X97716D01*
Y46459D02*
Y50209D01*
X94850Y65037D02*
Y68787D01*
Y66913D02*
X97975D01*
Y65037D02*
Y68787D01*
X95100Y14037D02*
Y17787D01*
Y15913D02*
X98225D01*
Y14037D02*
Y17787D01*
X99105Y93313D02*
Y97063D01*
Y95188D02*
X102230D01*
Y93313D02*
Y97063D01*
X102600Y50304D02*
Y54054D01*
Y52179D02*
X105725D01*
Y50304D02*
Y54054D01*
X106347Y93313D02*
Y97063D01*
Y95188D02*
X109472D01*
Y93313D02*
Y97063D01*
X107860Y106210D02*
Y109960D01*
Y108085D02*
X110985D01*
Y106210D02*
Y109960D01*
X108600Y379037D02*
Y382787D01*
Y380913D02*
X111725D01*
Y379037D02*
Y382787D01*
X109350Y60037D02*
Y63787D01*
Y61913D02*
X112475D01*
Y60037D02*
Y63787D01*
X109993Y19037D02*
Y22787D01*
Y20913D02*
X113119D01*
Y19037D02*
Y22787D01*
X111779Y29048D02*
Y32798D01*
Y30923D02*
X114904D01*
Y29048D02*
Y32798D01*
X115600Y316787D02*
Y320537D01*
Y318663D02*
X118725D01*
Y316787D02*
Y320537D01*
X117186Y60037D02*
Y63787D01*
Y61913D02*
X120311D01*
Y60037D02*
Y63787D01*
X117350Y39037D02*
Y42787D01*
Y40913D02*
X120475D01*
Y39037D02*
Y42787D01*
X117583Y34027D02*
Y37777D01*
Y35902D02*
X120708D01*
Y34027D02*
Y37777D01*
X119600Y324037D02*
Y327787D01*
Y325913D02*
X122725D01*
Y324037D02*
Y327787D01*
X120000Y408787D02*
Y405037D01*
X123125D01*
X123600Y307037D02*
Y310787D01*
Y308913D02*
X126725D01*
Y307037D02*
Y310787D01*
X124600Y49037D02*
Y52787D01*
Y50913D02*
X127725D01*
Y49037D02*
Y52787D01*
X132600Y75037D02*
Y78787D01*
Y76913D02*
X135725D01*
Y75037D02*
Y78787D01*
X133110Y24037D02*
Y27787D01*
Y25913D02*
X136235D01*
Y24037D02*
Y27787D01*
X134250Y94037D02*
Y97787D01*
Y95913D02*
X137375D01*
Y94037D02*
Y97787D01*
X135600Y330537D02*
Y334287D01*
Y332413D02*
X138725D01*
Y330537D02*
Y334287D01*
X139850Y141537D02*
Y145287D01*
Y143413D02*
X142975D01*
Y141537D02*
Y145287D01*
X140278Y56787D02*
Y60537D01*
Y58663D02*
X143403D01*
Y56787D02*
Y60537D01*
X142950Y94037D02*
Y97787D01*
Y95913D02*
X146075D01*
Y94037D02*
Y97787D01*
X144916Y52037D02*
Y55787D01*
Y53913D02*
X148041D01*
Y52037D02*
Y55787D01*
X145735Y31776D02*
Y35526D01*
Y33651D02*
X148860D01*
Y31776D02*
Y35526D01*
X153600Y67537D02*
Y71287D01*
Y69413D02*
X156725D01*
Y67537D02*
Y71287D01*
X158100Y82037D02*
Y85787D01*
Y83913D02*
X161225D01*
Y82037D02*
Y85787D01*
X163519Y37037D02*
Y40787D01*
Y38913D02*
X166644D01*
Y37037D02*
Y40787D01*
X164100Y101537D02*
Y105287D01*
X165663Y103413D01*
X167225Y105287D01*
Y101537D01*
X164100Y111537D02*
Y115287D01*
X165663Y113413D01*
X167225Y115287D01*
Y111537D01*
X164100Y121537D02*
Y125287D01*
X165663Y123413D01*
X167225Y125287D01*
Y121537D01*
X164100Y131537D02*
Y135287D01*
X165663Y133413D01*
X167225Y135287D01*
Y131537D01*
X164100Y141537D02*
Y145287D01*
X165663Y143413D01*
X167225Y145287D01*
Y141537D01*
X164100Y151537D02*
Y155287D01*
X165663Y153413D01*
X167225Y155287D01*
Y151537D01*
X164100Y161537D02*
Y165287D01*
X165663Y163413D01*
X167225Y165287D01*
Y161537D01*
X164100Y171537D02*
Y175287D01*
X165663Y173413D01*
X167225Y175287D01*
Y171537D01*
X164100Y181537D02*
Y185287D01*
X165663Y183413D01*
X167225Y185287D01*
Y181537D01*
X164100Y191537D02*
Y195287D01*
X165663Y193413D01*
X167225Y195287D01*
Y191537D01*
X164100Y201537D02*
Y205287D01*
X165663Y203413D01*
X167225Y205287D01*
Y201537D01*
X164100Y211537D02*
Y215287D01*
X165663Y213413D01*
X167225Y215287D01*
Y211537D01*
X164100Y221537D02*
Y225287D01*
X165663Y223413D01*
X167225Y225287D01*
Y221537D01*
X164100Y231537D02*
Y235287D01*
X165663Y233413D01*
X167225Y235287D01*
Y231537D01*
X164100Y241537D02*
Y245287D01*
X165663Y243413D01*
X167225Y245287D01*
Y241537D01*
X164100Y251537D02*
Y255287D01*
X165663Y253413D01*
X167225Y255287D01*
Y251537D01*
X164100Y261537D02*
Y265287D01*
X165663Y263413D01*
X167225Y265287D01*
Y261537D01*
X164100Y271537D02*
Y275287D01*
X165663Y273413D01*
X167225Y275287D01*
Y271537D01*
X164100Y281537D02*
Y285287D01*
X165663Y283413D01*
X167225Y285287D01*
Y281537D01*
X164100Y291537D02*
Y295287D01*
X165663Y293413D01*
X167225Y295287D01*
Y291537D01*
X165250Y77787D02*
Y81537D01*
Y79663D02*
X168375D01*
Y77787D02*
Y81537D01*
X166520Y47037D02*
Y50787D01*
Y48913D02*
X169645D01*
Y47037D02*
Y50787D01*
X173288Y23725D02*
Y27475D01*
Y25600D02*
X176413D01*
Y23725D02*
Y27475D01*
X174100Y77787D02*
Y81537D01*
Y79663D02*
X177225D01*
Y77787D02*
Y81537D01*
X182600Y78037D02*
Y81787D01*
Y79913D02*
X185725D01*
Y78037D02*
Y81787D01*
D02*
D73*
X10528Y205066D03*
Y215066D03*
Y225066D03*
Y235066D03*
Y245066D03*
X11600Y399100D03*
X15600Y87600D03*
Y344100D03*
X18250Y109850D03*
X19100Y184978D03*
X20528Y205066D03*
Y215066D03*
Y225066D03*
Y235066D03*
Y245066D03*
X25782Y170850D03*
X26600Y30350D03*
Y80850D03*
Y299100D03*
X28400Y260850D03*
X32107Y156100D03*
X32529Y288850D03*
X33000Y270600D03*
X33350Y94600D03*
X33850Y45100D03*
X35200Y133850D03*
X35600Y367100D03*
X36100Y110100D03*
X36600Y299100D03*
Y346100D03*
X38100Y185100D03*
X39350Y105350D03*
X40100Y196350D03*
X41600Y389100D03*
Y409100D03*
X41850Y10350D03*
Y60850D03*
X45000Y134100D03*
X45100Y66100D03*
X46100Y399100D03*
X46350Y150850D03*
X46850Y170850D03*
Y276822D03*
X47600Y306100D03*
X48350Y110100D03*
X48600Y11100D03*
X49600Y60850D03*
X50600Y389100D03*
Y409100D03*
X53850Y211100D03*
X54000Y110350D03*
Y134100D03*
X54100Y245100D03*
X55100Y94600D03*
Y399100D03*
X55850Y43374D03*
X58246Y158350D03*
X58350Y234100D03*
X58850Y215350D03*
X59600Y321850D03*
Y389100D03*
Y409100D03*
X60600Y369100D03*
X61100Y170350D03*
X63433Y22633D03*
X64100Y33100D03*
Y80850D03*
Y399100D03*
X65100Y170850D03*
X68600Y389100D03*
Y409100D03*
X69600Y311850D03*
X69709Y156350D03*
X70600Y164850D03*
X73100Y399100D03*
X73246Y17850D03*
X74850Y66350D03*
X76454Y29600D03*
X76704Y79600D03*
X77600Y90350D03*
Y389100D03*
Y409100D03*
X78850Y67600D03*
X79506Y24600D03*
X80870Y75512D03*
X81350Y20600D03*
X82100Y399100D03*
X84100Y95600D03*
Y105600D03*
Y115600D03*
Y125600D03*
Y135600D03*
Y145600D03*
Y155600D03*
Y165600D03*
Y175600D03*
Y185600D03*
Y195600D03*
Y205600D03*
Y215600D03*
Y225600D03*
Y235600D03*
Y245600D03*
Y255600D03*
Y265600D03*
Y275600D03*
Y285600D03*
X84591Y40522D03*
X84850Y59100D03*
X85100Y8100D03*
X89105Y87375D03*
X92600Y44367D03*
X96347Y87375D03*
X97860Y100273D03*
X98600Y373100D03*
X99350Y54100D03*
X99993Y13100D03*
X101779Y23110D03*
X105600Y310850D03*
X107186Y54100D03*
X107350Y33100D03*
X107583Y28090D03*
X109600Y318100D03*
X110000Y399100D03*
X113600Y301100D03*
X114600Y43100D03*
X122600Y69100D03*
X123110Y18100D03*
X124250Y88100D03*
X125600Y324600D03*
X129850Y135600D03*
X130278Y50850D03*
X132950Y88100D03*
X134916Y46100D03*
X135735Y25839D03*
X143600Y61600D03*
X148100Y76100D03*
X153519Y31100D03*
X154100Y95600D03*
Y105600D03*
Y115600D03*
Y125600D03*
Y135600D03*
Y145600D03*
Y155600D03*
Y165600D03*
Y175600D03*
Y185600D03*
Y195600D03*
Y205600D03*
Y215600D03*
Y225600D03*
Y235600D03*
Y245600D03*
Y255600D03*
Y265600D03*
Y275600D03*
Y285600D03*
X155250Y71850D03*
X156520Y41100D03*
X163288Y17788D03*
X164100Y71850D03*
X172600Y72100D03*
X0Y0D02*
M02*
