G04 DesignSpark PCB Gerber Version 11.0 Build 5877*
G04 #@! TF.Part,Single*
G04 #@! TF.FileFunction,Copper,L1,Top*
G04 #@! TF.FilePolarity,Positive*
%FSLAX35Y35*%
%MOIN*%
G04 #@! TA.AperFunction,ComponentPad*
%ADD97O,0.08000X0.06000*%
G04 #@! TA.AperFunction,SMDPad,CuDef*
%ADD98R,0.01800X0.01300*%
%ADD93R,0.02000X0.01600*%
%ADD96R,0.08000X0.02500*%
%ADD92R,0.03900X0.05000*%
%ADD74R,0.05200X0.05800*%
G04 #@! TD.AperFunction*
%ADD11C,0.01000*%
%ADD10C,0.01200*%
%ADD12C,0.02000*%
G04 #@! TA.AperFunction,ComponentPad*
%ADD94C,0.05000*%
%ADD14C,0.06000*%
G04 #@! TA.AperFunction,SMDPad,CuDef*
%ADD16R,0.05800X0.05200*%
G04 #@! TA.AperFunction,ComponentPad*
%ADD91C,0.14500*%
%ADD95C,0.20000*%
G04 #@! TD.AperFunction*
X0Y0D02*
D02*
D10*
X600Y600D02*
X178600D01*
Y430100D01*
X600D01*
Y600D01*
D02*
D11*
X17850Y145850D02*
Y143100D01*
X19350Y141600D01*
X50496D01*
X54746Y145850D01*
Y172100D01*
X17850Y150850D02*
X11100D01*
X11350Y134850D01*
X19100Y127100D01*
X26500D01*
X17850Y165850D02*
X12350D01*
X10350Y163850D01*
Y158100D01*
X12600Y155850D01*
X17850D01*
Y170850D02*
X25782D01*
X18109Y116916D02*
Y109850D01*
X18250D01*
X20600Y268040D02*
Y270600D01*
X27859D01*
X28600D01*
X20600Y273160D02*
X16410D01*
X13600Y270350D01*
Y251994D01*
X20528Y245066D01*
X24250Y185100D02*
X19222D01*
X19100Y184978D01*
X24250Y185100D02*
Y183537D01*
X29850Y177937D01*
Y163350D01*
X27350Y160850D01*
X17850D01*
X26500Y127100D02*
Y117224D01*
X26809Y116916D01*
X26600Y299100D02*
X36600D01*
X26600Y314750D02*
Y299100D01*
Y323450D02*
X36600D01*
X26809Y116916D02*
Y116742D01*
X26950Y373100D02*
Y361400D01*
X27250Y361100D01*
Y355450D01*
X36600Y346100D01*
X28600Y268040D02*
X28400Y260850D01*
X28600Y268040D02*
X28400Y270329D01*
X28600Y270600D01*
Y273160D02*
Y285350D01*
X32100Y288850D01*
X32529D01*
X32107Y156100D02*
X17850Y155850D01*
X32250Y373100D02*
X33600D01*
X35600Y371100D01*
Y367100D01*
X32950Y185100D02*
X38100D01*
X32950D02*
Y180548D01*
X32752Y180350D01*
Y163100D01*
X35002Y160850D01*
X39850D01*
X33000Y270600D02*
X28600D01*
X34100Y60850D02*
X41850D01*
X34100Y65850D02*
X45100Y66100D01*
X34100Y70850D02*
X40100D01*
X42600Y73350D01*
Y88750D01*
X40250Y91100D01*
Y94600D01*
X34100Y75850D02*
X28350D01*
X25850Y73350D01*
Y68850D01*
X28850Y65850D01*
X34100D01*
Y80850D02*
X26600D01*
X34600Y5350D02*
X42400D01*
X45350Y2400D01*
X63496D01*
X70246Y9150D01*
Y31350D01*
X34600Y10350D02*
X41850D01*
X34600Y15350D02*
X56600D01*
X34600Y20350D02*
X39000D01*
X41250Y22600D01*
Y43350D01*
X40000D01*
X34600Y25350D02*
X27350D01*
Y17600D01*
X29600Y15350D01*
X34600D01*
Y30350D02*
X26600D01*
X35200Y127100D02*
Y125850D01*
Y127100D02*
Y118090D01*
X36250Y117040D01*
X35200Y127100D02*
Y133850D01*
X35600Y367100D02*
X35950Y361100D01*
X36250Y117040D02*
Y110100D01*
X36100D01*
X36600Y314750D02*
Y299100D01*
Y323450D02*
X47600D01*
X37350Y101600D02*
X33350D01*
X28600Y96850D01*
Y91100D01*
X28850D01*
X34100Y85850D01*
X37852Y224636D02*
X33564D01*
X28600Y229600D01*
X15062D01*
X10528Y225066D01*
X38250Y205100D02*
X34600D01*
X29850Y209850D01*
X17350D01*
X12134Y215066D01*
X10528D01*
X38250Y215100D02*
X25857D01*
Y215066D01*
X20528D01*
X38250Y234100D02*
X21494D01*
X20528Y235066D01*
X38250Y245100D02*
X37850D01*
X32850Y240100D01*
X16850D01*
X11884Y245066D01*
X10528D01*
X39350Y105350D02*
X29950D01*
X26809Y108491D01*
Y116916D01*
X39850Y145850D02*
X49850D01*
X51350Y147350D01*
Y174100D01*
X54746D01*
X39850Y150850D02*
X46350D01*
X39850Y155850D02*
X32107Y156100D01*
X39850Y165850D02*
X45100D01*
X46850Y164100D01*
Y158100D01*
X44600Y155850D01*
X39850D01*
Y170850D02*
X46850D01*
X40000Y43350D02*
X33850D01*
Y45100D01*
X40250Y94600D02*
X33350D01*
X44950Y117040D02*
Y113500D01*
X48350Y110100D01*
X44950Y117040D02*
Y127050D01*
X45020Y126589D01*
X45000Y126118D02*
Y124850D01*
X45020Y126589D02*
Y126341D01*
Y126589D02*
Y134100D01*
X45000D01*
X45100Y66100D02*
X56100Y65850D01*
X45950Y373100D02*
Y361400D01*
X46250Y361100D01*
X46552Y224636D02*
X49564D01*
X58850Y215350D01*
X46850Y254500D02*
Y245200D01*
X46950Y245100D01*
X46850Y263200D02*
Y267225D01*
Y276822D01*
X46950Y205100D02*
Y198200D01*
X45100Y196350D01*
X40100D01*
X46950Y215100D02*
X49850D01*
X53850Y211100D01*
X46950Y234100D02*
X58350D01*
X46950Y245100D02*
X54100D01*
X47600Y306100D02*
Y314750D01*
Y323450D02*
Y359750D01*
X46250Y361100D01*
X48700Y43350D02*
X52350D01*
Y43374D01*
X55850D01*
X48950Y94600D02*
X55100D01*
X49600Y60850D02*
X56100D01*
X50600Y409100D02*
Y411100D01*
X46600Y415100D01*
X33950D01*
X26950Y408100D01*
Y373100D01*
X51250D02*
X56600D01*
X60600Y369100D01*
X53720Y126589D02*
Y117130D01*
X54000Y116850D01*
X53720Y126589D02*
Y133820D01*
X54000Y134100D01*
Y116850D02*
Y110350D01*
X54746Y176100D02*
X40100D01*
X39850Y175850D01*
X54746Y178100D02*
X54350D01*
Y181850D01*
X45204Y190996D01*
X18246D01*
X14600Y187350D01*
Y176350D01*
X15100Y175850D01*
X17850D01*
X56100Y65850D02*
X61350D01*
X64350Y68850D01*
Y72850D01*
X61350Y75850D01*
X56100D01*
Y70850D02*
X51200D01*
X48950Y73100D01*
Y94600D01*
X56100Y80850D02*
X64100D01*
X56600Y5350D02*
X61404D01*
X67154Y11100D01*
Y33350D01*
X70246D01*
X56600Y10350D02*
X49350D01*
X48600Y11100D01*
X56600Y20350D02*
X51100D01*
X48850Y22600D01*
Y44000D01*
X48700Y43850D01*
Y43350D01*
X56600Y25350D02*
X61100D01*
X63433Y22633D01*
X56600Y30350D02*
X61350D01*
X64100Y33100D01*
X57954Y172100D02*
X59454D01*
X61100Y170350D01*
X57954Y174100D02*
X62100D01*
X65100Y170850D01*
X57954Y176100D02*
X65350D01*
X68600Y172850D01*
X57954Y178100D02*
X70350D01*
Y177600D01*
X74350Y173600D01*
Y160991D01*
X69709Y156350D01*
X58246Y161350D02*
Y158350D01*
Y163350D02*
Y161350D01*
Y165350D02*
Y163350D01*
Y167350D02*
Y165350D01*
X58350Y258750D02*
Y234100D01*
Y267450D02*
X47075D01*
X46850Y267225D01*
X59600Y333750D02*
Y321850D01*
Y342450D02*
X69600D01*
X59600Y389100D02*
X52600Y382100D01*
X48950D01*
X45950Y379100D01*
Y373100D01*
X59600Y409100D02*
X65600Y415100D01*
X80600D01*
X90600Y405100D01*
Y393100D01*
X97600Y386100D01*
X107250D01*
X112250Y381100D01*
Y373100D01*
X60600Y369100D02*
X54950Y363450D01*
Y361100D01*
X61100Y170350D02*
X61454Y170100D01*
Y167350D01*
Y161350D02*
X64709D01*
X69709Y156350D01*
X62700Y116850D02*
X82850D01*
X84100Y115600D01*
X63433Y22633D02*
X63600Y22850D01*
Y17600D01*
X61350Y15350D01*
X56600D01*
X65100Y170850D02*
Y167350D01*
X63100Y165350D01*
X61454D01*
X65250Y361100D02*
Y364450D01*
X60600Y369100D01*
X64600Y373100D01*
X67950D01*
X68600Y172850D02*
Y172600D01*
X70600Y170600D01*
Y164850D01*
X68600Y389100D02*
Y388750D01*
X73250Y384100D01*
Y373100D01*
X69404Y33350D02*
X70246D01*
X69600Y333750D02*
Y311850D01*
Y342450D02*
X79600D01*
X69996Y82100D02*
Y57246D01*
X65100Y52350D01*
X37600D01*
X34100Y55850D01*
X69996Y84100D02*
X66350D01*
Y59600D01*
X66100D01*
X62350Y55850D01*
X56100D01*
X69996Y86100D02*
X57850D01*
X57600Y85850D01*
X56100D01*
X69996Y88100D02*
Y91454D01*
X59850Y101600D01*
X37350D01*
X70246Y35350D02*
X56600D01*
X70246Y37350D02*
Y44454D01*
X64850Y49850D01*
X31850D01*
Y48600D01*
X28850Y45600D01*
Y39100D01*
X30850D01*
X34600Y35350D01*
X70600Y164850D02*
X69100Y163350D01*
X61454D01*
X73204Y82100D02*
X74519D01*
X76635Y79668D01*
X73204Y84100D02*
X79681D01*
X80870Y82911D01*
Y75512D01*
X73204Y88100D02*
X73350D01*
X75600Y90350D01*
X77600D01*
X73246Y20600D02*
Y17850D01*
Y22600D02*
Y20600D01*
Y24600D02*
Y22600D01*
Y26600D02*
Y24600D01*
X73250Y373100D02*
Y361800D01*
X73950Y361100D01*
X73454Y31350D02*
X74704D01*
X76454Y29600D01*
X73454Y33350D02*
X78100D01*
X79531Y31919D01*
Y24600D01*
X73496Y69850D02*
Y71850D01*
Y69850D02*
Y67704D01*
X74850Y66350D01*
X73496Y71850D02*
Y73850D01*
Y75850D01*
X76454Y20600D02*
X81350D01*
X81850Y21100D01*
X76454Y20600D02*
Y20496D01*
Y24600D02*
X79531D01*
X76454Y26600D02*
Y29600D01*
X76635Y79668D02*
X76704Y79600D01*
Y69850D02*
Y69746D01*
X78850Y67600D01*
X76704Y71850D02*
X81616D01*
X86178Y76412D01*
Y86100D01*
X76704Y75850D02*
X76635Y79668D01*
X77600Y389100D02*
X77950D01*
X84950Y382100D01*
Y373100D01*
X78850Y67600D02*
Y51956D01*
X82160Y48646D01*
Y48533D01*
X89160Y41533D01*
X89167D01*
X92600Y38100D01*
X79506Y24600D02*
X79531D01*
X79600Y333750D02*
Y304850D01*
X75600Y300850D01*
Y227350D01*
X77100Y225850D01*
Y225350D01*
X79600Y342450D02*
Y349450D01*
X73950Y355100D01*
Y361100D01*
X80870Y75512D02*
X79208Y73850D01*
X76704D01*
X81350Y20600D02*
X81850Y21100D01*
Y22350D01*
X82100Y22600D01*
Y36350D01*
X81100Y37350D01*
X73454D01*
X84100Y135600D02*
X129850D01*
X84100Y175600D02*
X81600D01*
X70100Y187100D01*
Y265350D01*
X36600Y298850D01*
Y299100D01*
X84100Y185600D02*
X113600Y215100D01*
Y301100D01*
X84100Y225600D02*
Y225350D01*
X77100D01*
X84100Y235600D02*
Y235350D01*
X101600Y252850D01*
Y324750D01*
X110600Y333750D01*
X84100Y255600D02*
Y255100D01*
X91600Y262600D01*
Y310100D01*
X89600Y312100D01*
Y333750D01*
X84591Y40522D02*
Y21176D01*
X87666Y18100D01*
X92600D01*
X84850Y59100D02*
X92600D01*
X84950Y373100D02*
Y361800D01*
X84250Y361100D01*
X86178Y86100D02*
X73204D01*
X86178D02*
X87641D01*
X88917Y87375D01*
X89105D01*
X89600Y342450D02*
Y348750D01*
X84250Y354100D01*
Y361100D01*
X89600Y342450D02*
X99600D01*
X90250Y373100D02*
X98600D01*
X92600Y8100D02*
X85100D01*
X92600Y23100D02*
X101769D01*
X101779Y23110D01*
X92600Y23100D02*
X89350D01*
X86350Y26100D01*
Y31100D01*
X88350Y33100D01*
X92600D01*
Y38100D01*
Y49100D02*
Y44367D01*
Y54100D02*
X99350D01*
X92600Y64100D02*
X88850D01*
X85850Y67100D01*
Y70100D01*
X89850Y74100D01*
X92600D01*
Y69100D02*
X97600D01*
X102600Y74100D01*
X114600D01*
X92600D02*
Y79100D01*
Y119600D01*
X86600Y125600D01*
X84100D01*
X92950Y361100D02*
X98600D01*
X96347Y87375D02*
X111229D01*
X119340Y95486D01*
X119519D01*
X129633Y105600D01*
X154100D01*
X97860Y100273D02*
X105847D01*
X116140Y110566D01*
X158578D01*
X161381Y107763D01*
Y102881D01*
X154100Y95600D01*
X98600Y361100D02*
Y373100D01*
Y361100D02*
X104250D01*
X98600Y373100D02*
X106950D01*
X99600Y333750D02*
X96600D01*
Y258100D01*
X84100Y245600D01*
X99600Y342450D02*
X110600D01*
X99993Y13100D02*
X92600D01*
X105600Y310850D02*
Y227100D01*
X84100Y205600D01*
X107350Y33100D02*
X114600D01*
X109600Y318100D02*
Y221100D01*
X84100Y195600D01*
X112250Y373100D02*
Y361800D01*
X112950Y361100D01*
Y360750D01*
X119600Y354100D01*
Y191100D01*
X84100Y155600D01*
X114600Y13100D02*
X108987D01*
X102002Y20084D01*
Y22887D01*
X101779Y23110D01*
X114600Y23100D02*
X127957D01*
X131121Y19935D01*
X152006D01*
X156544Y24474D01*
Y31412D01*
X161232Y36100D01*
X165600D01*
X114600Y28100D02*
X107593D01*
X107583Y28090D01*
X114600Y38100D02*
Y43100D01*
Y54100D02*
X107186D01*
X114600Y59100D02*
X104100D01*
X103100Y58100D01*
Y34600D01*
X96600Y28100D01*
X92600D01*
X114600Y69100D02*
X122600D01*
X114600Y79100D02*
X124250D01*
X123110Y18100D02*
X114600D01*
X124250Y79100D02*
Y88100D01*
X125600Y324600D02*
Y151100D01*
X120100Y145600D01*
X84100D01*
X130278Y50850D02*
Y42439D01*
X131617Y41100D01*
X143600D01*
X132950Y79100D02*
Y88100D01*
X143600Y26100D02*
X135996D01*
X135735Y25839D01*
X143600Y31100D02*
X153519D01*
X143600Y36100D02*
X132100D01*
X119100Y49100D01*
X114600D01*
X143600Y46100D02*
X134916D01*
X143600Y51100D02*
X137850D01*
X124850Y64100D01*
X114600D01*
X143600Y61600D02*
Y56100D01*
X154100Y95100D02*
Y95600D01*
Y88600D01*
X148600Y83100D01*
X148100D01*
Y76100D01*
X155250Y64350D02*
Y71850D01*
X163950Y64350D02*
Y60750D01*
X165600Y59100D01*
Y56100D01*
X163950Y64350D02*
Y71700D01*
X164100Y71850D01*
X165600Y26100D02*
Y20100D01*
X163288Y17788D01*
X165600Y31100D02*
Y26100D01*
Y41100D02*
X156520D01*
X165600Y46100D02*
X170600D01*
X173600Y43100D01*
Y18100D01*
X163600Y8100D01*
X114600D01*
X165600Y51100D02*
X169600D01*
X172600Y54100D01*
Y72100D01*
D02*
D12*
X18250Y109850D03*
X19100Y184978D03*
X25782Y170850D03*
X26600Y30350D03*
Y80850D03*
Y299100D03*
X28400Y260850D03*
X32107Y156100D03*
X32529Y288850D03*
X33000Y270600D03*
X33350Y94600D03*
X33850Y45100D03*
X35200Y133850D03*
X35600Y367100D03*
X36100Y110100D03*
X36600Y299100D03*
Y346100D03*
X38100Y185100D03*
X39350Y105350D03*
X40100Y196350D03*
X41850Y10350D03*
Y60850D03*
X45000Y134100D03*
X45100Y66100D03*
X46350Y150850D03*
X46850Y170850D03*
Y276822D03*
X47600Y306100D03*
X48350Y110100D03*
X48600Y11100D03*
X49600Y60850D03*
X53850Y211100D03*
X54000Y110350D03*
Y134100D03*
X54100Y245100D03*
X55100Y94600D03*
X55850Y43374D03*
X58246Y158350D03*
X58350Y234100D03*
X58850Y215350D03*
X59600Y321850D03*
X60600Y369100D03*
X61100Y170350D03*
X63433Y22633D03*
X64100Y33100D03*
Y80850D03*
X65100Y170850D03*
X69600Y311850D03*
X69709Y156350D03*
X70600Y164850D03*
X73246Y17850D03*
X74850Y66350D03*
X76454Y29600D03*
X76704Y79600D03*
X77600Y90350D03*
X78850Y67600D03*
X79506Y24600D03*
X80870Y75512D03*
X81350Y20600D03*
X84591Y40522D03*
X84850Y59100D03*
X85100Y8100D03*
X89105Y87375D03*
X92600Y44367D03*
X96347Y87375D03*
X97860Y100273D03*
X98600Y373100D03*
X99350Y54100D03*
X99993Y13100D03*
X101779Y23110D03*
X105600Y310850D03*
X107186Y54100D03*
X107350Y33100D03*
X107583Y28090D03*
X109600Y318100D03*
X113600Y301100D03*
X114600Y43100D03*
X122600Y69100D03*
X123110Y18100D03*
X124250Y88100D03*
X125600Y324600D03*
X129850Y135600D03*
X130278Y50850D03*
X132950Y88100D03*
X134916Y46100D03*
X135735Y25839D03*
X143600Y61600D03*
X148100Y76100D03*
X153519Y31100D03*
X155250Y71850D03*
X156520Y41100D03*
X163288Y17788D03*
X164100Y71850D03*
X172600Y72100D03*
D02*
D14*
X41600Y389100D03*
Y409100D03*
X46100Y399100D03*
X50600Y389100D03*
Y409100D03*
X55100Y399100D03*
X59600Y389100D03*
Y409100D03*
X64100Y399100D03*
X68600Y389100D03*
Y409100D03*
X73100Y399100D03*
X77600Y389100D03*
Y409100D03*
X82100Y399100D03*
D02*
D16*
X26600Y314750D03*
Y323450D03*
X36600Y314750D03*
Y323450D03*
X46850Y254500D03*
Y263200D03*
X47600Y314750D03*
Y323450D03*
X58350Y258750D03*
Y267450D03*
X59600Y333750D03*
Y342450D03*
X69600Y333750D03*
Y342450D03*
X79600Y333750D03*
Y342450D03*
X89600Y333750D03*
Y342450D03*
X99600Y333750D03*
Y342450D03*
X110600Y333750D03*
Y342450D03*
D02*
D74*
X18109Y116916D03*
X24250Y185100D03*
X26500Y127100D03*
X26809Y116916D03*
X27250Y361100D03*
X32950Y185100D03*
X35200Y127100D03*
X35950Y361100D03*
X36250Y117040D03*
X37852Y224636D03*
X38250Y205100D03*
Y215100D03*
Y234100D03*
Y245100D03*
X40000Y43350D03*
X40250Y94600D03*
X44950Y117040D03*
X45020Y126589D03*
X46250Y361100D03*
X46552Y224636D03*
X46950Y205100D03*
Y215100D03*
Y234100D03*
Y245100D03*
X48700Y43350D03*
X48950Y94600D03*
X53720Y126589D03*
X54000Y116850D03*
X54950Y361100D03*
X62700Y116850D03*
X65250Y361100D03*
X73950D03*
X84250D03*
X92950D03*
X104250D03*
X112950D03*
X124250Y79100D03*
X132950D03*
X155250Y64350D03*
X163950D03*
D02*
D91*
X11600Y399100D03*
X110000D03*
D02*
D92*
X26950Y373100D03*
X32250D03*
X45950D03*
X51250D03*
X67950D03*
X73250D03*
X84950D03*
X90250D03*
X106950D03*
X112250D03*
D02*
D93*
X20600Y268040D03*
Y270600D03*
Y273160D03*
X28600Y268040D03*
Y270600D03*
Y273160D03*
D02*
D94*
X10528Y205066D03*
Y215066D03*
Y225066D03*
Y235066D03*
Y245066D03*
X20528Y205066D03*
Y215066D03*
Y225066D03*
Y235066D03*
Y245066D03*
D02*
D95*
X15600Y87600D03*
Y344100D03*
D02*
D96*
X17850Y145850D03*
Y150850D03*
Y155850D03*
Y160850D03*
Y165850D03*
Y170850D03*
Y175850D03*
X34100Y55850D03*
Y60850D03*
Y65850D03*
Y70850D03*
Y75850D03*
Y80850D03*
Y85850D03*
X34600Y5350D03*
Y10350D03*
Y15350D03*
Y20350D03*
Y25350D03*
Y30350D03*
Y35350D03*
X39850Y145850D03*
Y150850D03*
Y155850D03*
Y160850D03*
Y165850D03*
Y170850D03*
Y175850D03*
X56100Y55850D03*
Y60850D03*
Y65850D03*
Y70850D03*
Y75850D03*
Y80850D03*
Y85850D03*
X56600Y5350D03*
Y10350D03*
Y15350D03*
Y20350D03*
Y25350D03*
Y30350D03*
Y35350D03*
X92600Y8100D03*
Y13100D03*
Y18100D03*
Y23100D03*
Y28100D03*
Y33100D03*
Y38100D03*
Y49100D03*
Y54100D03*
Y59100D03*
Y64100D03*
Y69100D03*
Y74100D03*
Y79100D03*
X114600Y8100D03*
Y13100D03*
Y18100D03*
Y23100D03*
Y28100D03*
Y33100D03*
Y38100D03*
Y49100D03*
Y54100D03*
Y59100D03*
Y64100D03*
Y69100D03*
Y74100D03*
Y79100D03*
X143600Y26100D03*
Y31100D03*
Y36100D03*
Y41100D03*
Y46100D03*
Y51100D03*
Y56100D03*
X165600Y26100D03*
Y31100D03*
Y36100D03*
Y41100D03*
Y46100D03*
Y51100D03*
Y56100D03*
D02*
D97*
X84100Y95600D03*
Y105600D03*
Y115600D03*
Y125600D03*
Y135600D03*
Y145600D03*
Y155600D03*
Y165600D03*
Y175600D03*
Y185600D03*
Y195600D03*
Y205600D03*
Y215600D03*
Y225600D03*
Y235600D03*
Y245600D03*
Y255600D03*
Y265600D03*
Y275600D03*
Y285600D03*
X154100Y95600D03*
Y105600D03*
Y115600D03*
Y125600D03*
Y135600D03*
Y145600D03*
Y155600D03*
Y165600D03*
Y175600D03*
Y185600D03*
Y195600D03*
Y205600D03*
Y215600D03*
Y225600D03*
Y235600D03*
Y245600D03*
Y255600D03*
Y265600D03*
Y275600D03*
Y285600D03*
D02*
D98*
X54746Y172100D03*
Y174100D03*
Y176100D03*
Y178100D03*
X57954Y172100D03*
Y174100D03*
Y176100D03*
Y178100D03*
X58246Y161350D03*
Y163350D03*
Y165350D03*
Y167350D03*
X61454Y161350D03*
Y163350D03*
Y165350D03*
Y167350D03*
X69996Y82100D03*
Y84100D03*
Y86100D03*
Y88100D03*
X70246Y31350D03*
Y33350D03*
Y35350D03*
Y37350D03*
X73204Y82100D03*
Y84100D03*
Y86100D03*
Y88100D03*
X73246Y20600D03*
Y22600D03*
Y24600D03*
Y26600D03*
X73454Y31350D03*
Y33350D03*
Y35350D03*
Y37350D03*
X73496Y69850D03*
Y71850D03*
Y73850D03*
Y75850D03*
X76454Y20600D03*
Y22600D03*
Y24600D03*
Y26600D03*
X76704Y69850D03*
Y71850D03*
Y73850D03*
Y75850D03*
X0Y0D02*
M02*
