G04 DesignSpark PCB Gerber Version 11.0 Build 5877*
G04 #@! TF.Part,Single*
G04 #@! TF.FileFunction,Copper,L4,Bot*
G04 #@! TF.FilePolarity,Positive*
%FSLAX35Y35*%
%MOIN*%
G04 #@! TA.AperFunction,ComponentPad*
%ADD97O,0.08000X0.06000*%
G04 #@! TD.AperFunction*
%ADD11C,0.01000*%
%ADD10C,0.01200*%
%ADD12C,0.02000*%
G04 #@! TA.AperFunction,ComponentPad*
%ADD94C,0.05000*%
%ADD14C,0.06000*%
%ADD91C,0.14500*%
%ADD95C,0.20000*%
G04 #@! TD.AperFunction*
X0Y0D02*
D02*
D10*
X600Y600D02*
X178600D01*
Y430100D01*
X600D01*
Y600D01*
D02*
D11*
X26600Y30350D02*
Y80850D01*
X35200Y133850D02*
X34850D01*
X25782Y142918D01*
Y170850D01*
X36100Y110100D02*
Y110600D01*
X28850Y105600D01*
Y83100D01*
X26600Y80850D01*
X36600Y346100D02*
X104100D01*
X125600Y324600D01*
X36884Y293600D02*
Y293205D01*
X32529Y288850D01*
X37850Y156090D02*
X32107Y156100D01*
X40100Y196350D02*
X39850D01*
X32107Y188607D01*
Y156100D01*
X41850Y10350D02*
Y60850D01*
Y102850D01*
X39350Y105350D01*
X45000Y134100D02*
Y135000D01*
X47100Y137100D01*
Y150100D01*
X46350Y150850D01*
X48350Y110100D02*
Y74500D01*
X49600Y73250D01*
Y60850D01*
X48600Y11100D02*
Y58600D01*
X49600Y59600D01*
Y60850D01*
X53850Y211100D02*
Y192350D01*
X40350Y178850D01*
Y110350D01*
X44850Y105850D01*
Y66350D01*
X45100Y66100D01*
X54000Y110350D02*
Y104200D01*
X64100Y94100D01*
Y80850D01*
X54000Y134100D02*
Y163700D01*
X46850Y170850D01*
X54100Y245100D02*
X55100D01*
X59350Y240850D01*
X93600D01*
X104350Y230100D01*
Y179350D01*
X128100Y155600D01*
X154100D01*
X58350Y234100D02*
X59850D01*
X63350Y230600D01*
X94100D01*
X100100Y224600D01*
Y175850D01*
X123350Y152600D01*
Y152350D01*
X129850Y145850D01*
Y145600D01*
X154100D01*
X58850Y215350D02*
Y181776D01*
X57381Y180307D01*
Y176850D01*
X57100Y176569D01*
Y166100D01*
X64350Y158850D01*
X64850D01*
X67350Y156350D01*
Y25541D01*
X66342D01*
X63433Y22633D01*
X59600Y321850D02*
X104850D01*
X108600Y318100D01*
X109600D01*
X61100Y170350D02*
Y174100D01*
X67100Y180100D01*
X90850D01*
X96600Y174350D01*
X64100Y33100D02*
Y80850D01*
X65100Y170850D02*
X89600D01*
X93100Y167350D01*
Y114600D01*
X84100Y105600D01*
X69600Y311850D02*
X104600D01*
X105600Y310850D01*
X69709Y156350D02*
Y64100D01*
X74709Y59100D01*
X84850D01*
X70600Y164850D02*
X70850D01*
X75600Y160100D01*
Y130100D01*
X75350D01*
X79850Y125600D01*
X84100D01*
X76454Y29600D02*
X98850D01*
X102350Y33100D01*
X107350D01*
X77600Y90350D02*
Y98020D01*
X79853Y100273D01*
X97860D01*
X77600Y90350D02*
X73350Y86100D01*
Y73100D01*
X78850Y67600D01*
X80870Y75512D02*
Y75395D01*
X83251Y73014D01*
X83549D01*
X88609Y67954D01*
Y44540D01*
X84591Y40522D01*
X84100Y95600D02*
X83600D01*
Y87850D01*
X110600Y60850D01*
X118100D01*
Y60350D01*
X120100D01*
X129600Y50850D01*
X130278D01*
X89105Y87375D02*
X96347D01*
X99350Y54100D02*
X107350Y46100D01*
X134916D01*
X107186Y54100D02*
Y59472D01*
X87145Y79513D01*
X77211D01*
X77124Y79600D01*
X76704D01*
X107583Y28090D02*
X100787D01*
X97569Y24871D01*
X79777D01*
X79506Y24600D01*
X113600Y301100D02*
X108600Y306100D01*
X47600D01*
X122600Y69100D02*
Y81600D01*
X96600Y107600D01*
Y174350D01*
X129850Y135600D02*
X130100D01*
X143600Y122100D01*
Y61600D01*
X148100Y76100D02*
Y37547D01*
X141600Y31047D01*
X119588D01*
X111651Y23110D01*
X101779D01*
X153519Y31100D02*
Y21002D01*
X142580Y10064D01*
X110435D01*
X110287Y9915D01*
X103178D01*
X99993Y13100D01*
X154100Y125600D02*
X160100D01*
X162600Y123100D01*
Y82100D01*
X172600Y72100D01*
X154100Y135600D02*
X146850D01*
Y87600D01*
X151600Y82850D01*
Y52100D01*
X160600Y43100D01*
Y20476D01*
X163288Y17788D01*
X154100Y275600D02*
X126850D01*
X121850Y270600D01*
X33000D01*
X154100Y285600D02*
X146100Y293600D01*
X36884D01*
X156520Y41100D02*
X154196D01*
X150542Y37446D01*
Y23309D01*
X145333Y18100D01*
X123110D01*
X163288Y17788D02*
Y17700D01*
X151385Y5798D01*
X96152D01*
X81350Y20600D01*
D02*
D12*
X18250Y109850D03*
X19100Y184978D03*
X25782Y170850D03*
X26600Y30350D03*
Y80850D03*
Y299100D03*
X28400Y260850D03*
X32107Y156100D03*
X32529Y288850D03*
X33000Y270600D03*
X33350Y94600D03*
X33850Y45100D03*
X35200Y133850D03*
X35600Y367100D03*
X36100Y110100D03*
X36600Y299100D03*
Y346100D03*
X38100Y185100D03*
X39350Y105350D03*
X40100Y196350D03*
X41850Y10350D03*
Y60850D03*
X45000Y134100D03*
X45100Y66100D03*
X46350Y150850D03*
X46850Y170850D03*
Y276822D03*
X47600Y306100D03*
X48350Y110100D03*
X48600Y11100D03*
X49600Y60850D03*
X53850Y211100D03*
X54000Y110350D03*
Y134100D03*
X54100Y245100D03*
X55100Y94600D03*
X55850Y43374D03*
X58246Y158350D03*
X58350Y234100D03*
X58850Y215350D03*
X59600Y321850D03*
X60600Y369100D03*
X61100Y170350D03*
X63433Y22633D03*
X64100Y33100D03*
Y80850D03*
X65100Y170850D03*
X69600Y311850D03*
X69709Y156350D03*
X70600Y164850D03*
X73246Y17850D03*
X74850Y66350D03*
X76454Y29600D03*
X76704Y79600D03*
X77600Y90350D03*
X78850Y67600D03*
X79506Y24600D03*
X80870Y75512D03*
X81350Y20600D03*
X84591Y40522D03*
X84850Y59100D03*
X85100Y8100D03*
X89105Y87375D03*
X92600Y44367D03*
X96347Y87375D03*
X97860Y100273D03*
X98600Y373100D03*
X99350Y54100D03*
X99993Y13100D03*
X101779Y23110D03*
X105600Y310850D03*
X107186Y54100D03*
X107350Y33100D03*
X107583Y28090D03*
X109600Y318100D03*
X113600Y301100D03*
X114600Y43100D03*
X122600Y69100D03*
X123110Y18100D03*
X124250Y88100D03*
X125600Y324600D03*
X129850Y135600D03*
X130278Y50850D03*
X132950Y88100D03*
X134916Y46100D03*
X135735Y25839D03*
X143600Y61600D03*
X148100Y76100D03*
X153519Y31100D03*
X155250Y71850D03*
X156520Y41100D03*
X163288Y17788D03*
X164100Y71850D03*
X172600Y72100D03*
D02*
D14*
X41600Y389100D03*
Y409100D03*
X46100Y399100D03*
X50600Y389100D03*
Y409100D03*
X55100Y399100D03*
X59600Y389100D03*
Y409100D03*
X64100Y399100D03*
X68600Y389100D03*
Y409100D03*
X73100Y399100D03*
X77600Y389100D03*
Y409100D03*
X82100Y399100D03*
D02*
D91*
X11600D03*
X110000D03*
D02*
D94*
X10528Y205066D03*
Y215066D03*
Y225066D03*
Y235066D03*
Y245066D03*
X19100Y184978D02*
Y111285D01*
X18250Y109850D01*
X20528Y205066D03*
Y215066D03*
Y225066D03*
Y235066D03*
Y245066D03*
X28400Y260850D02*
Y194278D01*
X19100Y184978D01*
X33350Y94600D02*
Y45600D01*
X33850Y45100D01*
D02*
D95*
X15600Y87600D03*
Y344100D03*
D02*
D97*
X84100Y95600D03*
Y105600D03*
Y115600D03*
Y125600D03*
Y135600D03*
Y145600D03*
Y155600D03*
Y165600D03*
Y175600D03*
Y185600D03*
Y195600D03*
Y205600D03*
Y215600D03*
Y225600D03*
Y235600D03*
Y245600D03*
Y255600D03*
Y265600D03*
Y275600D03*
Y285600D03*
X154100Y95600D03*
Y105600D03*
Y115600D03*
Y125600D03*
Y135600D03*
Y145600D03*
Y155600D03*
Y165600D03*
Y175600D03*
Y185600D03*
Y195600D03*
Y205600D03*
Y215600D03*
Y225600D03*
Y235600D03*
Y245600D03*
Y255600D03*
Y265600D03*
Y275600D03*
Y285600D03*
X0Y0D02*
M02*
