G04 DesignSpark PCB Gerber Version 11.0 Build 5877*
G04 #@! TF.Part,Single*
G04 #@! TF.FileFunction,Paste,Top*
G04 #@! TF.FilePolarity,Positive*
%FSLAX35Y35*%
%MOIN*%
G04 #@! TA.AperFunction,SMDPad,CuDef*
%ADD110R,0.01200X0.00700*%
%ADD108R,0.01400X0.01000*%
%ADD109R,0.07400X0.01900*%
%ADD107R,0.03300X0.04400*%
%ADD90R,0.04600X0.05200*%
G04 #@! TD.AperFunction*
%ADD10C,0.01200*%
G04 #@! TA.AperFunction,SMDPad,CuDef*
%ADD25R,0.05200X0.04600*%
G04 #@! TD.AperFunction*
X0Y0D02*
D02*
D10*
X600Y600D02*
X178600D01*
Y430100D01*
X600D01*
Y600D01*
D02*
D25*
X26600Y314750D03*
Y323450D03*
X36600Y314750D03*
Y323450D03*
X46850Y254500D03*
Y263200D03*
X47600Y314750D03*
Y323450D03*
X58350Y258750D03*
Y267450D03*
X59600Y333750D03*
Y342450D03*
X69600Y333750D03*
Y342450D03*
X79600Y333750D03*
Y342450D03*
X89600Y333750D03*
Y342450D03*
X99600Y333750D03*
Y342450D03*
X110600Y333750D03*
Y342450D03*
D02*
D90*
X18109Y116916D03*
X24250Y185100D03*
X26500Y127100D03*
X26809Y116916D03*
X27250Y361100D03*
X32950Y185100D03*
X35200Y127100D03*
X35950Y361100D03*
X36250Y117040D03*
X37852Y224636D03*
X38250Y205100D03*
Y215100D03*
Y234100D03*
Y245100D03*
X40000Y43350D03*
X40250Y94600D03*
X44950Y117040D03*
X45020Y126589D03*
X46250Y361100D03*
X46552Y224636D03*
X46950Y205100D03*
Y215100D03*
Y234100D03*
Y245100D03*
X48700Y43350D03*
X48950Y94600D03*
X53720Y126589D03*
X54000Y116850D03*
X54950Y361100D03*
X62700Y116850D03*
X65250Y361100D03*
X73950D03*
X84250D03*
X92950D03*
X104250D03*
X112950D03*
X124250Y79100D03*
X132950D03*
X155250Y64350D03*
X163950D03*
D02*
D107*
X26950Y373100D03*
X32250D03*
X45950D03*
X51250D03*
X67950D03*
X73250D03*
X84950D03*
X90250D03*
X106950D03*
X112250D03*
D02*
D108*
X20600Y268040D03*
Y270600D03*
Y273160D03*
X28600Y268040D03*
Y270600D03*
Y273160D03*
D02*
D109*
X17850Y145850D03*
Y150850D03*
Y155850D03*
Y160850D03*
Y165850D03*
Y170850D03*
Y175850D03*
X34100Y55850D03*
Y60850D03*
Y65850D03*
Y70850D03*
Y75850D03*
Y80850D03*
Y85850D03*
X34600Y5350D03*
Y10350D03*
Y15350D03*
Y20350D03*
Y25350D03*
Y30350D03*
Y35350D03*
X39850Y145850D03*
Y150850D03*
Y155850D03*
Y160850D03*
Y165850D03*
Y170850D03*
Y175850D03*
X56100Y55850D03*
Y60850D03*
Y65850D03*
Y70850D03*
Y75850D03*
Y80850D03*
Y85850D03*
X56600Y5350D03*
Y10350D03*
Y15350D03*
Y20350D03*
Y25350D03*
Y30350D03*
Y35350D03*
X92600Y8100D03*
Y13100D03*
Y18100D03*
Y23100D03*
Y28100D03*
Y33100D03*
Y38100D03*
Y49100D03*
Y54100D03*
Y59100D03*
Y64100D03*
Y69100D03*
Y74100D03*
Y79100D03*
X114600Y8100D03*
Y13100D03*
Y18100D03*
Y23100D03*
Y28100D03*
Y33100D03*
Y38100D03*
Y49100D03*
Y54100D03*
Y59100D03*
Y64100D03*
Y69100D03*
Y74100D03*
Y79100D03*
X143600Y26100D03*
Y31100D03*
Y36100D03*
Y41100D03*
Y46100D03*
Y51100D03*
Y56100D03*
X165600Y26100D03*
Y31100D03*
Y36100D03*
Y41100D03*
Y46100D03*
Y51100D03*
Y56100D03*
D02*
D110*
X54746Y172100D03*
Y174100D03*
Y176100D03*
Y178100D03*
X57954Y172100D03*
Y174100D03*
Y176100D03*
Y178100D03*
X58246Y161350D03*
Y163350D03*
Y165350D03*
Y167350D03*
X61454Y161350D03*
Y163350D03*
Y165350D03*
Y167350D03*
X69996Y82100D03*
Y84100D03*
Y86100D03*
Y88100D03*
X70246Y31350D03*
Y33350D03*
Y35350D03*
Y37350D03*
X73204Y82100D03*
Y84100D03*
Y86100D03*
Y88100D03*
X73246Y20600D03*
Y22600D03*
Y24600D03*
Y26600D03*
X73454Y31350D03*
Y33350D03*
Y35350D03*
Y37350D03*
X73496Y69850D03*
Y71850D03*
Y73850D03*
Y75850D03*
X76454Y20600D03*
Y22600D03*
Y24600D03*
Y26600D03*
X76704Y69850D03*
Y71850D03*
Y73850D03*
Y75850D03*
X0Y0D02*
M02*
